<svg id="Layer_1" data-name="Layer 1" xmlns="http://www.w3.org/2000/svg" viewBox="0 0 100 100"><defs><style>.cls-1{fill:#fff;}.cls-2{fill:#020303;}</style></defs><title>content_billede</title><rect class="cls-1" x="-8.64" y="-3.88" width="115.58" height="115.58"/><g id="Layer_2" data-name="Layer 2"><ellipse class="cls-2" cx="50" cy="49.56" rx="47.74" ry="28.73"/><path class="cls-1" d="M28.09,43.94c-1,.11-1.12.19-1.12,1.28V50.3c0,1.1.1,1.2,1.12,1.27v.49H24v-.51c1.05-.13,1.12-.17,1.12-1.27V47.81H21.55V50.3c0,1.1.12,1.16,1.11,1.27v.49H18.58v-.51c1-.1,1.13-.17,1.13-1.27V45.22c0-1.09-.11-1.2-1.13-1.28v-.48h4.08v.48c-1,.09-1.11.19-1.11,1.28v1.9h3.57v-1.9c0-1.09-.13-1.17-1.12-1.28v-.48h4.09Z"/><path class="cls-1" d="M33.61,52.06v-.51c.83-.11.83-.26.65-.83-.14-.37-.35-1-.53-1.51h-2.6c-.14.41-.33.91-.46,1.33-.28.83,0,.93,1.08,1v.49H28.49v-.51c.83-.1,1-.22,1.49-1.33l2.75-6.84.64-.12c.85,2.3,1.75,4.65,2.61,6.87.49,1.2.6,1.32,1.46,1.42v.5Zm-1.16-6.33c-.39,1-.76,1.84-1.09,2.8h2.1Z"/><path class="cls-1" d="M47.15,43.94c-.81.11-1.06.28-1.1.88s-.08,1-.08,2.11V52.2h-.74l-5.52-6.61v3a15.67,15.67,0,0,0,.06,2c.06.61.33.89,1.31.94v.5H37.81v-.53c.75-.06,1.08-.26,1.16-.88s.09-1.4.08-2.11V45.44a1.66,1.66,0,0,0-.28-1.08c-.24-.33-.56-.36-1.11-.42v-.48h2.58l5,5.86V46.91a20.69,20.69,0,0,0-.05-2.08c0-.48-.25-.85-1.35-.91v-.49h3.27Z"/><path class="cls-1" d="M52,43.46a5.36,5.36,0,0,1,3.79,1.14A3.77,3.77,0,0,1,57,47.49,4.15,4.15,0,0,1,55.35,51a6,6,0,0,1-3.74,1.11H48v-.51c1-.08,1.12-.2,1.12-1.29v-5c0-1.11-.14-1.2-1.12-1.3v-.48Zm-1.1,6.72c0,.94.24,1.25,1.21,1.25,1.8,0,2.82-1.24,2.82-3.74a4.16,4.16,0,0,0-1-2.93A2.85,2.85,0,0,0,51.87,44a1.16,1.16,0,0,0-.79.19c-.12.12-.15.34-.15.73Z"/><path class="cls-1" d="M65.17,49.75a23.63,23.63,0,0,1-.6,2.33H58v-.53c1.17-.08,1.27-.17,1.27-1.28v-5c0-1.11-.13-1.2-1.12-1.3v-.48h4.13v.48c-1,.09-1.17.19-1.17,1.3v5.11c0,.73,0,1.06.76,1.08h.69A1.34,1.34,0,0,0,63.81,51a5.43,5.43,0,0,0,.84-1.38Z"/><path class="cls-1" d="M73.07,49.81c-.07.35-.44,1.88-.56,2.25H65.62v-.48c1.2-.12,1.28-.18,1.28-1.3V45.22c0-1.12-.16-1.2-1.05-1.28v-.48h6.33c0,.24.08,1.32.14,2.14l-.52.07a3.28,3.28,0,0,0-.6-1.23c-.23-.27-.41-.35-1.08-.35h-.86c-.51,0-.56,0-.56.48v2.77H70c.74,0,.87-.2,1.07-1.14h.56v2.95h-.51C70.91,48.17,70.8,48,70,48H68.75v2.28c0,.91,0,1.2.84,1.2h.94c.74,0,.94-.09,1.21-.45a6.12,6.12,0,0,0,.8-1.32Z"/><path class="cls-1" d="M82.17,52.15h-.4c-1.68-.07-2.17-.43-2.57-1a23.59,23.59,0,0,1-1.36-2.33.75.75,0,0,0-.79-.47h-.27V50.3c0,1.07.14,1.16,1.13,1.28v.49h-4v-.52c1-.1,1.12-.21,1.12-1.28V45.21c0-1-.13-1.2-1.12-1.27v-.48H77.7a4,4,0,0,1,2.4.49A2,2,0,0,1,81,45.72a2.24,2.24,0,0,1-1.65,2.14c.2.4.72,1.26,1.11,1.86a9.77,9.77,0,0,0,1,1.38,1.56,1.56,0,0,0,.83.6Zm-5-4.33A1.65,1.65,0,0,0,79,45.93c0-1.4-.81-1.9-1.55-1.9-.36,0-.53,0-.6.13a.72.72,0,0,0-.12.5v3.16Z"/><path class="cls-1" d="M43.08,61.24c0,.16-.2.77-.26,1H39.89V62c.56-.05.6-.1.6-.6V59c0-.54-.06-.57-.51-.6v-.17h2.71a6.82,6.82,0,0,0,.05.92h-.18a2,2,0,0,0-.18-.46c-.09-.2-.23-.24-.6-.24h-.6c-.19,0-.2,0-.2.19V60h.67c.45,0,.48-.09.55-.5h.19v1.24H42.2c-.07-.43-.12-.49-.56-.49H41v1.2c0,.42.13.46.44.47H42c.37,0,.43-.06.56-.21a2.43,2.43,0,0,0,.33-.56Z"/><path class="cls-1" d="M45,60.27c-.1-.35-.26-.6-.6-.6A.36.36,0,0,0,44,60v0c0,.26.17.38.51.53.52.25.78.43.78.83a.9.9,0,0,1-1,.84h0a1.62,1.62,0,0,1-.72-.17c0-.18-.08-.51-.11-.71h.18c.11.39.32.7.74.7a.4.4,0,0,0,.42-.38v0c0-.27-.16-.41-.48-.56s-.77-.4-.77-.83a.84.84,0,0,1,.89-.78h.05a3,3,0,0,1,.6.08,5.37,5.37,0,0,0,.09.67Z"/><path class="cls-1" d="M46.79,62.19a.72.72,0,0,1-.26.08c-.38,0-.6-.24-.6-.72V59.8h-.41v-.07l.16-.18H46v-.5c.11-.12.29-.28.4-.4h.09v.89h.69a.2.2,0,0,1,0,.25h-.68v1.54c0,.49.19.6.35.6a.82.82,0,0,0,.37-.1l0,.16Z"/><path class="cls-1" d="M49.19,62.2V62c.67-.05.71-.08.71-.53V59.19c0-.3,0-.32-.31-.34H49.3V58.7a5.41,5.41,0,0,0,1.1-.29v3.12c0,.46,0,.48.71.53v.17Z"/><path class="cls-1" d="M53.65,60.45l-.41.21a1.06,1.06,0,0,1-.36.09,1.08,1.08,0,0,1-1.1-1v-.09A1.23,1.23,0,0,1,53,58.38c.78,0,1.21.68,1.21,1.5a2.42,2.42,0,0,1-1.52,2.25,3.72,3.72,0,0,1-.72.16l-.05-.18A2,2,0,0,0,53.65,60.45ZM53,58.59c-.47,0-.6.44-.6.86a.86.86,0,0,0,.8,1,.91.91,0,0,0,.54-.17,2.67,2.67,0,0,0,0-.4C53.69,59.32,53.54,58.59,53,58.59Z"/><path class="cls-1" d="M57.2,61.4c-.08.27-.19.6-.24.8H54.68v-.15c.33-.32.69-.68,1-1a2.45,2.45,0,0,0,.74-1.45.69.69,0,0,0-.71-.79,1,1,0,0,0-.83.56l-.14-.13.35-.48a1,1,0,0,1,.82-.36,1,1,0,0,1,1,.93.41.41,0,0,1,0,.11,1.93,1.93,0,0,1-.75,1.45c-.26.27-.64.64-.9.89h1.15c.32,0,.41,0,.6-.41Z"/><path class="cls-1" d="M59.48,60.45l-.4.21a1.12,1.12,0,0,1-.36.09,1.09,1.09,0,0,1-1.09-1.06v-.07a1.23,1.23,0,0,1,1.21-1.24c.77,0,1.2.68,1.2,1.5a2.41,2.41,0,0,1-1.52,2.25,3.47,3.47,0,0,1-.71.16v-.18A2,2,0,0,0,59.48,60.45Zm-.68-1.86c-.47,0-.61.44-.61.86a.86.86,0,0,0,.8,1,1,1,0,0,0,.55-.17v-.4C59.53,59.32,59.38,58.59,58.8,58.59Z"/></g></svg>
