<svg id="Layer_1" data-name="Layer 1" xmlns="http://www.w3.org/2000/svg" xmlns:xlink="http://www.w3.org/1999/xlink" viewBox="0 0 490 550"><defs><style>.cls-1,.cls-12,.cls-7{fill:none;}.cls-2{fill:url(#linear-gradient);}.cls-3{fill:#86644b;}.cls-4{fill:#fff;}.cls-5{fill:#000b15;opacity:0.54;isolation:isolate;}.cls-6{fill:#ba131a;}.cls-7{stroke:#c1272d;}.cls-12,.cls-7{stroke-miterlimit:10;}.cls-8{fill:#e6e6e6;}.cls-9{fill:#b21716;}.cls-10{fill:#ffa626;}.cls-11{clip-path:url(#clip-path);}.cls-12{stroke:#000;stroke-width:5px;}.cls-13{clip-path:url(#clip-path-2);}.cls-14{fill:#c1272d;}</style><linearGradient id="linear-gradient" x1="286" y1="327.85" x2="286" y2="1273.85" gradientTransform="matrix(1, 0, 0, -1, 0, 1131.49)" gradientUnits="userSpaceOnUse"><stop offset="0" stop-color="#ffacc1"/><stop offset="0.38" stop-color="#e394dd"/><stop offset="0.69" stop-color="#5a4eb8"/><stop offset="1" stop-color="#001b58"/></linearGradient><clipPath id="clip-path"><path class="cls-1" d="M166.17,237.84a81.82,81.82,0,0,1,21.89,3,16.72,16.72,0,0,0,.25-2.74c.06-10.67-10.19-19.43-22.87-19.58s-23,8.39-23.11,19a16.12,16.12,0,0,0,.3,3.25A77.73,77.73,0,0,1,166.17,237.84Z"/></clipPath><clipPath id="clip-path-2"><path class="cls-1" d="M314,245.72c-13.15,0-25.1-2.83-33.94-7.42a34.27,34.27,0,1,0,66.77.55C338.15,243.12,326.65,245.72,314,245.72Z"/></clipPath></defs><title>mitspil</title><rect class="cls-2" x="-774" y="-142.36" width="2120" height="946"/><g id="Layer_2" data-name="Layer 2"><polygon class="cls-3" points="232.46 298.86 235.23 296.5 299.32 370.27 296.56 372.63 232.46 298.86"/><rect class="cls-3" x="275.59" y="344.1" width="26.9" height="2.41" transform="translate(-13.97 12.19) rotate(-2.36)"/><polygon class="cls-3" points="268.57 334.92 266.17 335.19 269.15 360.68 271.56 360.4 268.57 334.92"/><polygon class="cls-3" points="295.58 368.3 295.11 370.26 315.33 375.04 315.8 373.08 295.58 368.3"/><polygon class="cls-3" points="298.08 395.19 300.42 394.93 297.29 368.27 294.96 368.54 298.08 395.19"/><rect class="cls-3" x="18.33" y="344.69" width="91.35" height="3.4" transform="translate(-251.45 189.65) rotate(-53.11)"/><rect class="cls-3" x="17.32" y="362.08" width="36.83" height="2.19" transform="translate(-44.18 7.1) rotate(-7.03)"/><rect class="cls-3" x="64.01" y="346.5" width="2.28" height="39.21" transform="translate(-24.56 5.23) rotate(-3.87)"/><rect class="cls-3" x="25.91" y="391.55" width="25.16" height="2.19" transform="translate(-354.73 424.76) rotate(-89.07)"/><rect class="cls-3" x="15.06" y="386" width="25.16" height="2.19" transform="translate(-185.9 63.05) rotate(-29.3)"/><ellipse class="cls-4" cx="165.78" cy="204.46" rx="73.2" ry="70.87"/><ellipse class="cls-5" cx="176.4" cy="456.2" rx="93.53" ry="12.45" transform="translate(-2.15 0.84) rotate(-0.27)"/><ellipse class="cls-4" cx="167.65" cy="359.26" rx="95.58" ry="96.99"/><rect class="cls-6" x="108.63" y="259.07" width="116.04" height="29.65" transform="translate(-1.29 0.79) rotate(-0.27)"/><rect class="cls-6" x="179.92" y="261.67" width="27.45" height="86.02" transform="translate(-1.43 0.92) rotate(-0.27)"/><line class="cls-7" x1="196.24" y1="345.24" x2="196.3" y2="358.05"/><line class="cls-7" x1="201.13" y1="345.23" x2="201.19" y2="358.04"/><line class="cls-7" x1="205.95" y1="345.17" x2="206.01" y2="357.98"/><line class="cls-7" x1="186.18" y1="345.29" x2="186.24" y2="358.1"/><line class="cls-7" x1="190.69" y1="345.05" x2="190.75" y2="357.86"/><path d="M168.82,354.08a2.51,2.51,0,0,1-1.78-4.27,2.45,2.45,0,0,1,1.77-.75,2.51,2.51,0,0,1,2.52,2.49,2.47,2.47,0,0,1-.73,1.78,2.37,2.37,0,0,1-1.77.75Z"/><path d="M168.82,348.52v1.2a1.92,1.92,0,1,1-1.9,1.93h0a1.91,1.91,0,0,1,1.89-1.92h0v-1.2m0,0h0a3.12,3.12,0,0,0,0,6.22h0a3.12,3.12,0,0,0,.39-6.22Z"/><path d="M169.58,369.82a2.51,2.51,0,0,1-2.51-2.51h0a2.5,2.5,0,0,1,2.49-2.51h0a2.5,2.5,0,0,1,1.8,4.27,2.45,2.45,0,0,1-1.77.75Z"/><path d="M169.58,364.17v1.2a1.92,1.92,0,1,1-1.91,1.93h0a1.91,1.91,0,0,1,1.89-1.92h0v-1.2m0,0h0a3.12,3.12,0,0,0,0,6.22h0a3.12,3.12,0,1,0,.39-6.22Z"/><path d="M169.65,385.55a2.51,2.51,0,0,1-2.51-2.49,2.47,2.47,0,0,1,.73-1.78,2.51,2.51,0,0,1,3.56,0,2.58,2.58,0,0,1,.74,1.76,2.61,2.61,0,0,1-.74,1.79,2.49,2.49,0,0,1-1.77.73Z"/><path d="M169.65,379.94v1.2a1.91,1.91,0,1,1-1.9,1.92,1.91,1.91,0,0,1,1.9-1.92h0v-1.2m0,0h0a3.11,3.11,0,1,0,0,6.21h0a3.11,3.11,0,0,0,0-6.21Z"/><path d="M168.7,338.33a2.51,2.51,0,0,1-2.51-2.49,2.43,2.43,0,0,1,.73-1.78,2.53,2.53,0,1,1,3.61,3.54,2.46,2.46,0,0,1-1.77.73Z"/><path d="M168.7,332.71v1.21a1.91,1.91,0,0,1,1.91,1.9,2,2,0,0,1-.55,1.35,1.9,1.9,0,1,1-2.68-2.7,1.82,1.82,0,0,1,1.31-.55v-1.21m0,0h0a3.12,3.12,0,0,0,0,6.23h0a3.12,3.12,0,0,0,.38-6.23Z"/><path class="cls-8" d="M206.32,149.33a207.28,207.28,0,0,0-81.25.33c-6.49,1.36-11.73-2.65-11.76-9.26v-1a12.73,12.73,0,0,1,11.76-12.72,654.59,654.59,0,0,1,81.07-.35A12.69,12.69,0,0,1,218,138.94v1C218,146.54,212.8,150.62,206.32,149.33Z"/><path class="cls-9" d="M242.77,100.24h0a50.56,50.56,0,0,0-3.46-4.39c-.1.08,4,3.62,3.44,4.41-.91,1.2-11.47-7-26.49-7.79-9.57-.55-13.14,2-14.33,2.93a10.44,10.44,0,0,0-3.72,6.21c-.64,3.5.89,6.38,5.73,13.53,2.61,3.88,6,8.74,10.19,14.45a320,320,0,0,0-97.63,2.24,178.88,178.88,0,0,1,31.71-42.72c9.2-9.06,15.79-13.75,25.23-16.42a60,60,0,0,1,23.74-1.48C209,72.82,216.64,77.64,224,82.59A75.58,75.58,0,0,1,242.77,100.24Z"/><path d="M135.67,184.23a6.51,6.51,0,1,1,6.52-6.53,6.51,6.51,0,0,1-6.52,6.53Z"/><path d="M135.67,170.62v1.2a5.91,5.91,0,1,1-5.91,5.94,5.92,5.92,0,0,1,5.91-5.94v-1.2m0,0h0a7.12,7.12,0,0,0,0,14.22h0a7.12,7.12,0,0,0,0-14.22Z"/><circle class="cls-4" cx="136.41" cy="177.72" r="1.28"/><circle class="cls-4" cx="133.44" cy="175.44" r="1.94"/><path d="M189,185.09a6.51,6.51,0,0,1,0-13,6.64,6.64,0,0,1,1.71.23,6.5,6.5,0,0,1-1.7,12.79Z"/><path d="M189,172.68h0a6.2,6.2,0,0,1,1.54.2A5.9,5.9,0,0,1,189,184.49a5.72,5.72,0,0,1-1.54-.21,5.89,5.89,0,0,1,1.53-11.6m0-1.21a7.12,7.12,0,0,0-1.85,14,7.3,7.3,0,0,0,1.86.24,7.12,7.12,0,0,0,1.84-14A7.76,7.76,0,0,0,189,171.47Z"/><circle class="cls-4" cx="188.6" cy="178.6" r="1.28"/><circle class="cls-4" cx="191.26" cy="176.08" r="1.94"/><path class="cls-10" d="M196.62,203.57c5.92-.68,6-2.31.2-3.61l-24.67-5.66c-5.8-1.33-10.76,1.13-11,5.46s4.39,7.35,10.32,6.69Z"/><g class="cls-11"><line class="cls-12" x1="187.35" y1="230.15" x2="143.4" y2="229.64"/><line class="cls-12" x1="178.51" y1="243.25" x2="178.49" y2="216.64"/><line class="cls-12" x1="170.17" y1="240.36" x2="169.96" y2="215.68"/><line class="cls-12" x1="161.64" y1="241.01" x2="161.28" y2="215.04"/><line class="cls-12" x1="152.79" y1="240.79" x2="152.94" y2="213.13"/></g><path class="cls-12" d="M166.17,237.84a81.82,81.82,0,0,1,21.89,3,16.72,16.72,0,0,0,.25-2.74c.06-10.67-10.19-19.43-22.87-19.58s-23,8.39-23.11,19a16.12,16.12,0,0,0,.3,3.25A77.73,77.73,0,0,1,166.17,237.84Z"/><line class="cls-12" x1="129.37" y1="166.99" x2="145.81" y2="174.58"/><line class="cls-12" x1="180.21" y1="175.54" x2="196.95" y2="167.44"/><line class="cls-7" x1="181.01" y1="345.23" x2="181.07" y2="358.04"/><circle class="cls-8" cx="249.28" cy="106.87" r="9.39"/></g><g id="Layer_2-2" data-name="Layer 2"><ellipse class="cls-4" cx="310.96" cy="227.88" rx="81.11" ry="78.53"/><path class="cls-8" d="M356.14,166.5a229.73,229.73,0,0,0-88.95.35c-7.49,1.56-13.52-3-13.52-10.69h0a14.67,14.67,0,0,1,13.52-14.67,727.81,727.81,0,0,1,88.74-.4,14.64,14.64,0,0,1,13.68,14.53h0C369.62,163.27,363.63,168,356.14,166.5Z"/><path class="cls-9" d="M397.08,112.2h0a56.13,56.13,0,0,0-3.84-4.86c-.11.07,4.47,3.94,3.82,4.88-1,1.36-12.72-7.75-29.36-8.63-10.6-.61-14.56,2.2-15.87,3.24a11.66,11.66,0,0,0-4.14,6.88c-.7,3.88,1,7.09,6.36,15,2.9,4.3,6.66,9.7,11.3,16.06a355,355,0,0,0-108.15,2.48,198.34,198.34,0,0,1,35.15-47.38c10.19-10.06,17.57-15.23,28-18.2A66.65,66.65,0,0,1,346.57,80c13,1.8,21.55,7.16,29.74,12.6A84,84,0,0,1,397.08,112.2Z"/><circle class="cls-8" cx="403.27" cy="114.21" r="10.4"/><rect class="cls-3" x="215.62" y="276.37" width="3.77" height="101.62" transform="translate(-150.89 190.66) rotate(-36.05)"/><rect class="cls-3" x="189.14" y="289.18" width="40.74" height="2.42" transform="translate(-112.42 447.19) rotate(-80.16)"/><rect class="cls-3" x="194.89" y="300.14" width="2.53" height="43.61" transform="translate(-162.05 439.46) rotate(-76.81)"/><rect class="cls-3" x="175.42" y="270.93" width="2.43" height="27.98" transform="translate(-148.91 364.92) rotate(-72.01)"/><rect class="cls-3" x="184.88" y="261.21" width="2.43" height="27.98" transform="translate(-54.11 45.71) rotate(-12.24)"/><rect class="cls-3" x="359.56" y="321.11" width="101.62" height="3.77" transform="translate(-98.64 439.8) rotate(-51.13)"/><rect class="cls-3" x="415.82" y="283.49" width="2.51" height="27.85" transform="translate(-55.18 98.97) rotate(-12.7)"/><rect class="cls-3" x="410.21" y="317.52" width="26.77" height="2.51" transform="translate(-74.66 137.69) rotate(-16.99)"/><rect class="cls-3" x="430.33" y="274.68" width="21.52" height="2.11" transform="translate(142.27 701.53) rotate(-86.95)"/><rect class="cls-3" x="438.84" y="280.55" width="27.98" height="2.43" transform="translate(-62.57 144.62) rotate(-16.99)"/><ellipse class="cls-5" cx="316.09" cy="510.62" rx="103.63" ry="13.79"/><ellipse class="cls-4" cx="313.03" cy="405.59" rx="105.9" ry="107.46"/><rect class="cls-6" x="248.17" y="290.12" width="128.57" height="32.85"/><rect class="cls-6" x="323.91" y="288.98" width="30.42" height="95.32"/><line class="cls-7" x1="335.59" y1="383.62" x2="335.59" y2="397.82"/><line class="cls-7" x1="339.96" y1="383.62" x2="339.96" y2="397.82"/><line class="cls-7" x1="349.13" y1="383.62" x2="349.13" y2="397.82"/><line class="cls-7" x1="352.55" y1="383.62" x2="352.55" y2="397.82"/><line class="cls-7" x1="344.3" y1="383.62" x2="344.3" y2="397.82"/><line class="cls-7" x1="325.47" y1="383.62" x2="325.47" y2="397.82"/><line class="cls-7" x1="330.47" y1="383.38" x2="330.47" y2="397.57"/><path d="M312.36,393.29a2.71,2.71,0,1,1,2.7-2.77A2.78,2.78,0,0,1,312.36,393.29Z"/><path d="M312.36,388.44a2.1,2.1,0,1,1-2.1,2.09,2.09,2.09,0,0,1,2.1-2.09m0-1.36a3.45,3.45,0,1,0,3.44,3.45,3.45,3.45,0,0,0-3.44-3.45Z"/><path d="M313.17,410.73a2.77,2.77,0,1,1,2.77-2.77,2.7,2.7,0,0,1-2.64,2.77Z"/><path d="M313.17,405.86a2.1,2.1,0,1,1-2.1,2.1,2.1,2.1,0,0,1,2.1-2.1m0-1.35a3.45,3.45,0,1,0,3.44,3.45,3.44,3.44,0,0,0-3.44-3.45Z"/><path d="M313.17,428.18a2.71,2.71,0,1,1,2.77-2.7A2.78,2.78,0,0,1,313.17,428.18Z"/><path d="M313.17,423.31a2.1,2.1,0,1,1-2.1,2.1,2.1,2.1,0,0,1,2.1-2.1h0m0-1.35a3.45,3.45,0,1,0,3.44,3.45,3.44,3.44,0,0,0-3.44-3.45Z"/><path d="M312.36,375.85a2.77,2.77,0,1,1,2.7-2.84v.07A2.78,2.78,0,0,1,312.36,375.85Z"/><path d="M312.36,371a2.1,2.1,0,1,1-2.1,2.1,2.1,2.1,0,0,1,2.1-2.1m0-1.35a3.45,3.45,0,1,0,3.44,3.45,3.44,3.44,0,0,0-3.44-3.45Z"/><path d="M280.16,203.69a7.23,7.23,0,1,1,7.23-7.23h0A7.25,7.25,0,0,1,280.16,203.69Z"/><path d="M280.16,189.9a6.56,6.56,0,1,1-6.56,6.57,6.56,6.56,0,0,1,6.56-6.57m0-1.36a7.91,7.91,0,1,0,7.9,7.91h0A7.91,7.91,0,0,0,280.16,188.56Z"/><circle class="cls-4" cx="280.97" cy="196.46" r="1.42"/><circle class="cls-4" cx="277.67" cy="193.9" r="2.15"/><path d="M339.47,204.92a7.4,7.4,0,0,1-1.92-.26,7.22,7.22,0,1,1,1.92.26Z"/><path d="M339.46,191.13h0a6.76,6.76,0,0,1,1.74.23,6.55,6.55,0,0,1,4.6,8v.06a6.59,6.59,0,0,1-6.32,4.83,6.87,6.87,0,0,1-1.74-.23,6.55,6.55,0,0,1,1.73-12.88m0-1.36a7.91,7.91,0,0,0-2.09,15.54,8.24,8.24,0,0,0,2.1.28,7.91,7.91,0,0,0,0-15.82Z"/><circle class="cls-4" cx="339.01" cy="197.7" r="1.42"/><circle class="cls-4" cx="341.99" cy="194.92" r="2.15"/><path d="M314,245.72c-13.15,0-25.1-2.83-33.94-7.42a34.27,34.27,0,1,0,66.77.55C338.15,243.12,326.65,245.72,314,245.72Z"/><g class="cls-13"><ellipse class="cls-14" cx="313.41" cy="276.88" rx="18.11" ry="8.15"/><path d="M313.41,272.18c9,0,14.1,3.36,14.71,4.77-.61,1.35-5.72,4.77-14.71,4.77s-14.1-3.37-14.72-4.77c.62-1.35,5.73-4.77,14.72-4.77m0-6.76c-11.87,0-21.49,5.16-21.49,11.53s9.62,11.45,21.49,11.45,21.5-5.17,21.5-11.53S325.28,265.42,313.41,265.42Z"/></g><path class="cls-10" d="M347.69,225.52c6.65-.71,6.76-2.55.25-4.05l-27.19-6.37c-6.51-1.53-12.08,1.16-12.38,6s4.91,8.19,11.56,7.46Z"/></g></svg>
