<svg id="Layer_1" data-name="Layer 1" xmlns="http://www.w3.org/2000/svg" xmlns:xlink="http://www.w3.org/1999/xlink" viewBox="0 0 600 680"><defs><style>.cls-1{fill:#717271;}.cls-2,.cls-6{fill:#1d1d1b;}.cls-2,.cls-3{stroke:#000;stroke-miterlimit:10;}.cls-24,.cls-3{fill:#858584;}.cls-4{fill:#929292;}.cls-5{fill:#484948;}.cls-7{fill:#fff;}.cls-8{fill:#ea7868;}.cls-9{fill:#e15650;}.cls-10{isolation:isolate;}.cls-11{fill:url(#linear-gradient);}.cls-12{fill:url(#linear-gradient-2);}.cls-13{fill:url(#linear-gradient-3);}.cls-14{fill:url(#linear-gradient-4);}.cls-15{fill:url(#linear-gradient-5);}.cls-16{fill:url(#linear-gradient-6);}.cls-17{fill:url(#linear-gradient-7);}.cls-18{fill:url(#linear-gradient-8);}.cls-19{fill:url(#linear-gradient-9);}.cls-20{fill:url(#linear-gradient-10);}.cls-21{fill:url(#linear-gradient-11);}.cls-22{fill:#ca9b5b;}.cls-23{fill:#ebebeb;}.cls-25{fill:#ab7f51;}.cls-26{fill:#57ced7;}.cls-27{fill:#90ced7;}.cls-28{fill:#516778;}.cls-29{fill:#c2c5c9;}.cls-30{fill:#78818c;}.cls-31{fill:#95a4ab;}</style><linearGradient id="linear-gradient" x1="184.64" y1="7705.04" x2="303.01" y2="7705.04" gradientTransform="translate(0 -7433.3)" gradientUnits="userSpaceOnUse"><stop offset="0" stop-color="#f4c77a"/><stop offset="0.36" stop-color="#eab470"/><stop offset="1" stop-color="#d48a5b"/></linearGradient><linearGradient id="linear-gradient-2" x1="201.24" y1="7696.24" x2="264.26" y2="7696.24" gradientTransform="translate(0 -7433.3)" gradientUnits="userSpaceOnUse"><stop offset="0" stop-color="#e29971"/><stop offset="1" stop-color="#d39974"/></linearGradient><linearGradient id="linear-gradient-3" x1="267.37" y1="7760.55" x2="146.77" y2="7760.55" gradientTransform="translate(0 -7433.3)" gradientUnits="userSpaceOnUse"><stop offset="0" stop-color="#de966e"/><stop offset="0.6" stop-color="#e09881"/><stop offset="1" stop-color="#e19a90"/></linearGradient><linearGradient id="linear-gradient-4" x1="175.67" y1="7683.95" x2="217.97" y2="7683.95" gradientTransform="translate(0 -7433.3)" gradientUnits="userSpaceOnUse"><stop offset="0" stop-color="#e29990"/><stop offset="0.06" stop-color="#de9988"/><stop offset="0.21" stop-color="#d8997d"/><stop offset="0.42" stop-color="#d49976"/><stop offset="1" stop-color="#d39974"/></linearGradient><linearGradient id="linear-gradient-5" x1="159.15" y1="7774.7" x2="203.73" y2="7774.7" gradientTransform="translate(0 -7433.3)" gradientUnits="userSpaceOnUse"><stop offset="0" stop-color="#cb7461"/><stop offset="0.02" stop-color="#cc7564"/><stop offset="0.18" stop-color="#d07a6f"/><stop offset="0.4" stop-color="#d27c76"/><stop offset="1" stop-color="#d37d78"/></linearGradient><linearGradient id="linear-gradient-6" x1="118.97" y1="7715.61" x2="191.83" y2="7715.61" xlink:href="#linear-gradient"/><linearGradient id="linear-gradient-7" x1="185.11" y1="7653.93" x2="221.83" y2="7653.93" xlink:href="#linear-gradient"/><linearGradient id="linear-gradient-8" x1="208.12" y1="7758.63" x2="249.44" y2="7758.63" gradientTransform="translate(0 -7433.3)" gradientUnits="userSpaceOnUse"><stop offset="0" stop-color="#cb7a61"/><stop offset="0.02" stop-color="#cc7a64"/><stop offset="0.18" stop-color="#d07c6f"/><stop offset="0.4" stop-color="#d27d76"/><stop offset="1" stop-color="#d37d78"/></linearGradient><linearGradient id="linear-gradient-9" x1="215.6" y1="7815.13" x2="218.05" y2="7815.13" gradientTransform="translate(0 -7433.3)" gradientUnits="userSpaceOnUse"><stop offset="0" stop-color="#cb6061"/><stop offset="0.07" stop-color="#cd6968"/><stop offset="0.22" stop-color="#d17471"/><stop offset="0.42" stop-color="#d27b77"/><stop offset="1" stop-color="#d37d78"/></linearGradient><linearGradient id="linear-gradient-10" x1="171" y1="7786.37" x2="180.19" y2="7786.37" gradientTransform="translate(0 -7433.3)" gradientUnits="userSpaceOnUse"><stop offset="0" stop-color="#cb7f61"/><stop offset="0.02" stop-color="#cc7f64"/><stop offset="0.18" stop-color="#d07e6f"/><stop offset="0.4" stop-color="#d27d76"/><stop offset="1" stop-color="#d37d78"/></linearGradient><linearGradient id="linear-gradient-11" x1="239.83" y1="7769.03" x2="245.39" y2="7769.03" gradientTransform="translate(0 -7433.3)" gradientUnits="userSpaceOnUse"><stop offset="0" stop-color="#cb7761"/><stop offset="0.02" stop-color="#cc7864"/><stop offset="0.18" stop-color="#d07b6f"/><stop offset="0.4" stop-color="#d27d76"/><stop offset="1" stop-color="#d37d78"/></linearGradient></defs><title>sexogsamfund</title><path class="cls-1" d="M358.3,136.62h0a1.39,1.39,0,0,1,1.39,1.39h0V181.8a1.39,1.39,0,0,1-1.39,1.39h0a1.38,1.38,0,0,1-1.38-1.39h0V138a1.38,1.38,0,0,1,1.38-1.39Z"/><path class="cls-1" d="M110.21,37.6H308.54A48.38,48.38,0,0,1,356.92,86h0V583.82a48.38,48.38,0,0,1-48.38,48.38H110.21a48.38,48.38,0,0,1-48.38-48.38V86A48.38,48.38,0,0,1,110.21,37.6Z"/><path class="cls-2" d="M110.08,44.37h199a40.31,40.31,0,0,1,40.31,40.31h0V584.47a40.3,40.3,0,0,1-40.31,40.3h-199a40.3,40.3,0,0,1-40.3-40.3h0V84.68a40.3,40.3,0,0,1,40.3-40.31Z"/><rect class="cls-3" x="85.2" y="110.71" width="248.76" height="435.33"/><polygon class="cls-4" points="85.81 111.58 333.09 501.79 333.09 111.58 85.81 111.58"/><rect class="cls-5" x="188.06" y="74.14" width="46.03" height="6.28" rx="3.13"/><circle class="cls-5" cx="211.08" cy="61.89" r="3.61"/><circle class="cls-5" cx="161.01" cy="77.28" r="5.75"/><circle class="cls-1" cx="207.48" cy="585.13" r="21.93"/><circle class="cls-6" cx="207.48" cy="585.13" r="18.5"/><path class="cls-1" d="M60.45,113.34h0a1.38,1.38,0,0,1,1.38,1.39v20.5a1.38,1.38,0,0,1-1.38,1.39h0a1.39,1.39,0,0,1-1.39-1.39v-20.5A1.39,1.39,0,0,1,60.45,113.34Z"/><path class="cls-1" d="M60.45,167.85h0a1.38,1.38,0,0,1,1.38,1.39v36.54a1.39,1.39,0,0,1-1.38,1.4h0a1.4,1.4,0,0,1-1.39-1.4V169.24A1.39,1.39,0,0,1,60.45,167.85Z"/><path class="cls-1" d="M60.45,219.63h0A1.38,1.38,0,0,1,61.83,221v36.54A1.38,1.38,0,0,1,60.45,259h0a1.39,1.39,0,0,1-1.39-1.39V221A1.39,1.39,0,0,1,60.45,219.63Z"/><rect class="cls-7" x="86.75" y="174.76" width="245.03" height="313.47"/><rect class="cls-8" x="109.83" y="196" width="199.92" height="211.84"/><polygon class="cls-9" points="109.83 196 309.75 359.94 309.75 196 109.83 196"/><g class="cls-10"><path d="M120.73,445.87v5h-4.6l-1,7.95h-5.72l1-7.95h-3.72l-1,7.95H100l1.07-7.95H97v-5h4.61l.46-3.69H98.19v-4.95h4.57l1-7.38h5.65l-1,7.38h3.72l1-7.38h5.68l-1,7.38h3.92v4.95h-4.53l-.5,3.69Zm-9.21-3.69h-3.73l-.5,3.69H111Z"/><path d="M140.36,444.18a8.09,8.09,0,0,0-3.77-1,2.87,2.87,0,0,0-1.55.38,1.19,1.19,0,0,0-.6,1,1.44,1.44,0,0,0,.1.56,1,1,0,0,0,.42.4,3.93,3.93,0,0,0,1,.35l1.67.38a8,8,0,0,1,4.3,2,5.24,5.24,0,0,1,1.42,3.79,6.87,6.87,0,0,1-.69,3.11,6.63,6.63,0,0,1-1.92,2.32,9.15,9.15,0,0,1-2.95,1.46,13.1,13.1,0,0,1-3.81.52,15.47,15.47,0,0,1-7.87-2.27l2.54-4.91a9.89,9.89,0,0,0,5.53,2,2.72,2.72,0,0,0,1.57-.42,1.26,1.26,0,0,0,.62-1.07,1.91,1.91,0,0,0-.1-.64,1.06,1.06,0,0,0-.4-.46,3.18,3.18,0,0,0-.91-.38c-.39-.12-.91-.24-1.55-.37a8.8,8.8,0,0,1-4.51-1.94,4.78,4.78,0,0,1-1.29-3.55,7,7,0,0,1,.61-3A6.08,6.08,0,0,1,130,440.3a8.38,8.38,0,0,1,2.78-1.42,12.49,12.49,0,0,1,3.63-.5,16.38,16.38,0,0,1,6.34,1.27Z"/><path d="M149.3,439.11h7v2.42a9,9,0,0,1,6.37-2.73,7.4,7.4,0,0,1,6.68,3.69,7.46,7.46,0,0,1,6.68-3.73,8.31,8.31,0,0,1,2.62.41,5.43,5.43,0,0,1,2.11,1.26,6.16,6.16,0,0,1,1.4,2.25,9.45,9.45,0,0,1,.52,3.34v12.79h-6.95v-9.72a11.81,11.81,0,0,0-.21-2.45,3.87,3.87,0,0,0-.62-1.5,2,2,0,0,0-.94-.73,3.34,3.34,0,0,0-1.15-.19q-3.35,0-3.34,4.87v9.72h-7v-9.72a12.94,12.94,0,0,0-.2-2.47,4.49,4.49,0,0,0-.55-1.56,1.93,1.93,0,0,0-.94-.79,4,4,0,0,0-1.35-.21,4.16,4.16,0,0,0-1.23.19,2.18,2.18,0,0,0-1,.75,4,4,0,0,0-.69,1.54,10.42,10.42,0,0,0-.25,2.55v9.72h-7Z"/><path d="M189.09,448.79a9.54,9.54,0,0,1,.88-4.09,10.12,10.12,0,0,1,2.46-3.31,11.61,11.61,0,0,1,3.75-2.2,14.32,14.32,0,0,1,9.44,0,11.54,11.54,0,0,1,3.77,2.19,9.73,9.73,0,0,1,2.47,3.34,10.18,10.18,0,0,1,.89,4.28,10.06,10.06,0,0,1-3.38,7.62,11,11,0,0,1-3.79,2.17,14.48,14.48,0,0,1-4.78.77,13.84,13.84,0,0,1-4.68-.77,10.73,10.73,0,0,1-3.71-2.19,10.05,10.05,0,0,1-2.44-3.4A10.63,10.63,0,0,1,189.09,448.79Zm7.33.07a4.53,4.53,0,0,0,.37,1.83,4.78,4.78,0,0,0,1,1.44,4.24,4.24,0,0,0,1.42,1,4.65,4.65,0,0,0,3.49,0,4.19,4.19,0,0,0,1.43-1,5.18,5.18,0,0,0,1-1.44,4.44,4.44,0,0,0,.36-1.79,4.35,4.35,0,0,0-.36-1.75,5.18,5.18,0,0,0-1-1.44,4.57,4.57,0,0,0-4.92-1,4.56,4.56,0,0,0-1.42,1,4.85,4.85,0,0,0-1,1.43A4.15,4.15,0,0,0,196.42,448.86Z"/><path d="M226.15,426.94v19.27l7.29-7.1H243l-9.87,9.1,10.44,10.6h-9.75l-7.64-8v8h-7V426.94Z"/><path d="M248,431.54a3.84,3.84,0,0,1,.3-1.51,4,4,0,0,1,2.1-2.1,4,4,0,0,1,3,0,4.13,4.13,0,0,1,1.25.85,3.82,3.82,0,0,1,.84,1.25,3.86,3.86,0,0,1,0,3,3.91,3.91,0,0,1-2.09,2.09,3.86,3.86,0,0,1-3,0,3.82,3.82,0,0,1-1.25-.84,4.13,4.13,0,0,1-.85-1.25A3.85,3.85,0,0,1,248,431.54Zm7.41,7.57v19.7h-6.95v-19.7Z"/><path d="M262.63,439.11h6.95v2.5a7.63,7.63,0,0,1,2.88-2.33,9.13,9.13,0,0,1,3.42-.59,8.52,8.52,0,0,1,3.55.67,7.12,7.12,0,0,1,2.51,1.9,5.49,5.49,0,0,1,1.16,2.23,11.84,11.84,0,0,1,.3,2.8v12.52h-6.95v-9.95a10.76,10.76,0,0,0-.21-2.36,2.92,2.92,0,0,0-.75-1.44,2.57,2.57,0,0,0-1-.65,3.86,3.86,0,0,0-1.23-.19,3.45,3.45,0,0,0-2.71,1,4.39,4.39,0,0,0-.94,3v10.52h-6.95Z"/><path d="M312.63,439.11v18.36a20,20,0,0,1-.2,2.95,12.32,12.32,0,0,1-.53,2.31,7.39,7.39,0,0,1-1.44,2.36,9.89,9.89,0,0,1-2.36,1.9,12.74,12.74,0,0,1-3.13,1.27,15.2,15.2,0,0,1-3.79.46,14.45,14.45,0,0,1-4.22-.58,11.35,11.35,0,0,1-3.36-1.59,9.35,9.35,0,0,1-2.36-2.38,7.73,7.73,0,0,1-1.23-3h7.83c.49,1.31,1.59,2,3.3,2a4.46,4.46,0,0,0,3.37-1.23,4.76,4.76,0,0,0,1.17-3.42v-1.88a12.16,12.16,0,0,1-1.48,1.21,9.34,9.34,0,0,1-1.44.79,7.18,7.18,0,0,1-1.54.44,10.78,10.78,0,0,1-1.76.13,10,10,0,0,1-3.88-.73,8.88,8.88,0,0,1-5.05-5.16,11,11,0,0,1-.71-4.05,11.41,11.41,0,0,1,.76-4.21,10.9,10.9,0,0,1,2.1-3.38,9.6,9.6,0,0,1,7.12-3.09,7.65,7.65,0,0,1,5.88,2.61v-2.07ZM297,448.86a4.6,4.6,0,0,0,.34,1.79,4.72,4.72,0,0,0,.94,1.44,4.24,4.24,0,0,0,1.42,1,4.6,4.6,0,0,0,1.79.34,4.55,4.55,0,0,0,1.75-.34,4.24,4.24,0,0,0,1.42-1,5.18,5.18,0,0,0,1-1.44,4.32,4.32,0,0,0,.36-1.75,4.23,4.23,0,0,0-.36-1.76,4.91,4.91,0,0,0-1-1.43,4.78,4.78,0,0,0-1.44-1,4.39,4.39,0,0,0-1.71-.34,4.19,4.19,0,0,0-1.73.36,5.22,5.22,0,0,0-1.42,1,4.52,4.52,0,0,0-1,1.41A4.14,4.14,0,0,0,297,448.86Z"/></g><path class="cls-11" d="M185.1,220.08c.86-.72,2.93-.53,6-.25,2.8.25,3.35.77,5.18.51,1.46-.21,2.61-.83,4.91-2.07,2.62-1.41,2.54-1.74,4.4-2.58a22.89,22.89,0,0,1,5.18-1.55,12.36,12.36,0,0,1,4.65-.52,22.76,22.76,0,0,1,2.72.61c.32.08.33.09,1.42.42,2,.6,2.34.7,2.32.78s-2.5-.5-5.17.52a12.6,12.6,0,0,0-2.59,1.55c-2.13,1.46-4.39,3-4.14,3.62s4.31-.28,7.25-1a32.56,32.56,0,0,0,7.5-2.58,17.81,17.81,0,0,0,4.91-3.37,13.38,13.38,0,0,0,2.85-3.87c1.1-2.33,1-4.16,1.29-4.14s.62,2.5.26,5.17a17.8,17.8,0,0,1-2.07,6.21,21.52,21.52,0,0,1-2.84,3.87,20.21,20.21,0,0,1-3.37,3.36c-2.33,1.75-3.91,1.88-3.87,2.59s1.48,1,4.4,2.07c1.66.62,3.26,1.41,4.91,2.07,4.25,1.69,6.93,3.07,12.94,5.69s5.56,2.24,16.3,6.73c5.54,2.32,9.43,4,10.34,4.4,10.14,4.39,15.27,6.62,18.12,8.53,4.82,3.25,9.16,6.17,11.89,11.9,3.75,7.86,1.85,15.51,1.3,17.6A29.41,29.41,0,0,1,293,300.54a47.76,47.76,0,0,1-13.19,8.28c-5.49,2.47-7.72,2.43-10.87,5.42a16.82,16.82,0,0,0-4.91,8.53c-.4,1.89-.93,4.37.26,6.73,1.56,3.1,4.8,3.38,4.65,4.91s-4,2.61-5.95,2.85a12.65,12.65,0,0,1-6.73-1,14.06,14.06,0,0,1-5.43-4.66c-5.65-7.78-6.4-15.21-10.59-20.94-5-6.82-9.43-3.75-21.47-11.9-4.07-2.75-11.65-7.89-16.56-16.3-7.22-12.37-.51-17.87-6.2-35.44C191.41,232.91,182.52,222.3,185.1,220.08Z"/><path class="cls-12" d="M210.2,291c1.63-1.38,2.81-.87,5.43-2.58,4.41-2.88,5.81-7.4,7.24-10.87,3.2-7.74,4.8-5.84,12.17-18.11,6.28-10.47,9.93-19.84,9.3-20.18s-3.45,6.28-9.83,11.64c-2.07,1.74-3.19,2.72-5.43,4.65-3.37,2.93-3.72,3.31-4.13,3.88-1.69,2.37-1.19,3.74-2.33,8.54s-1.88,7.88-4.4,9.83c-1.48,1.15-3.14,1.46-6.47,2.07-4.48.82-6.86,1.26-8.53,0-2.67-2-2.23-7.38-1-10.87,1.73-5.08,4.78-5.4,10.61-12.42,1.16-1.4,3.36-4.81,7.75-11.64,6.73-10.44,5.88-9.55,8.53-13.45,6-8.81,6.53-7.75,12.94-17.08,2.63-3.8,6-7.09,8.29-11.12a12.38,12.38,0,0,1,3.1-3.62,6.4,6.4,0,0,1,3.88-1.81c2.8,0,4.71,3.34,5.17,4.14,1.36,2.34,1.43,4.61,1.55,9.05.18,6.66.26,10,.26,10.35-.14,8.14-.21,12.22-.78,17.34a106.36,106.36,0,0,1-2.32,13.71c-1.26,5.22-1.88,5.86-4.92,15-5.87,17.67-3.93,16.37-7,22.51-1.55,3.14-3.26,5.87-3.37,10.09,0,1.52.16,1.92,1,8.54.6,4.59.9,6.91.77,8a14.7,14.7,0,0,1-5.42,9.57c-7.73,5.52-25.69-1.56-32.09-14.23C206.72,305,205.77,294.74,210.2,291Z"/><path class="cls-13" d="M264.53,392.91c-3.38-3.82-2.93-3.37-3.88-4.4a69.6,69.6,0,0,0-5.95-5.95c-2.71-2.37-3-2.18-4.65-3.88a23,23,0,0,1-4.14-5.69c-.38-.79-1.62-3.55-1.55-10.35,0-3.93.47-3.44,1.55-13.19.76-6.84.6-7.48,1.3-10.35.26-1.08.52-2.53,1-5.43a11.77,11.77,0,0,0,.22-5,19.21,19.21,0,0,0,.56-7.12,21.66,21.66,0,0,0-2.6-8.81,15.74,15.74,0,0,0-3.62-4.65,18.7,18.7,0,0,0-5.69-3.1c-3.39-1.37-4.44-1.15-6.73-2.58a15.08,15.08,0,0,1-3.1-2.59,2,2,0,0,0-1.05-.5c-2.88-5.57-8.13-10.71-12.41-10.11-2.38.33-3.83,2.35-5.69,1.55s-2.44-3.8-3.1-7.5c-.31-1.73-.08-1.34-.78-7-.15-1.24-.51-4.14-.51-4.14a43.07,43.07,0,0,1,5.42-1.81c3.26-.78,4.5-.31,4.65-.78.44-1.3-9.37-4-19.4-10.86-9.74-6.62-12.22-12-16.3-10.87-4.39,1.22-6,8.68-6.47,10.87-1,4.83-.16,9,.78,13.45a35.73,35.73,0,0,0,2.59,8.54c1.85,4,3.32,4.94,3.62,8a14,14,0,0,1-1.3,6.73,20.6,20.6,0,0,1-3.44,5.7,9.21,9.21,0,0,0-3.28-1.56c-1.52-.48-1.81-.14-4.4-.52-2.76-.41-2.93-.86-5.17-1a10.89,10.89,0,0,0-4.14.26,10.57,10.57,0,0,0-3.88,2.33,16.14,16.14,0,0,0-5.69,8.79,18.66,18.66,0,0,0-.51,5.95,72,72,0,0,0,2.58,14.49c1.83,6.06,2.35,6.76,4.65,13.71,3.76,11.32,2.67,10.37,5.18,16.82.37.95,1.88,5.29,4.91,14a15.31,15.31,0,0,1,1,6.73c-.2,2.21-.86,3.17-1.81,6-1.78,5.16-2.67,7.74-1.81,9.57,2.54,5.43,18.72,2.58,20.44-.52.09-.17.67-1.29,1.29-2.59a19.31,19.31,0,0,0,1-2.32,9.14,9.14,0,0,0,0-3.88,18.26,18.26,0,0,0-1-3.62c-.62-1.65-.49-1.7-1.81-6.72-1.71-6.52-2.15-7.26-3.62-12.94-.42-1.61-.74-2.93-1.14-4.63a19.45,19.45,0,0,0,2.69.73c.4.08.93.18,1.55.26a17.59,17.59,0,0,1,1.3,1.29,21.73,21.73,0,0,1,3.1,4.66c1.13,2.28,1.53,4.11,2.32,7.76a30.58,30.58,0,0,1,1,6.72,21.6,21.6,0,0,1-1,6.73,23.72,23.72,0,0,1-2.58,5.43c-1.62,2.6-2.29,2.73-2.33,3.36-.23,3.4,18.41,10.5,41.39,10.61,23.63.11,43.46-7.21,43.21-10.61C267.35,396.06,267.28,396,264.53,392.91Z"/><path class="cls-14" d="M178.38,258.63c1.28,1.36,2.57,9.66,3.1,10.09.88.73,6.33,4.94,10.35,6.2a106.64,106.64,0,0,0,10.6,2.07c5,.68,4.66.26,9.06-1,.79-.23,4.16-4.43,4.65-5.43s.83-3.24,1.29-4.65c.84-2.54.51-4.47.26-8-.3-4.34.05-3.63-.26-6.2a38.65,38.65,0,0,0-1.81-8c-1-3-1.15-2.15-3.62-8a24.88,24.88,0,0,0-2.84-5.69,35.35,35.35,0,0,0-3.11-3.36c-1.69-1.74-2.21-2.11-2.84-2.07-.93,0-1,.9-2.59,1.81a9.94,9.94,0,0,1-3.36,1,10.79,10.79,0,0,1-3.1.26,8.43,8.43,0,0,1-3.63-1c-.63-.37-1.46-1-2.58-1.82-.9-.66-1-.79-1.3-.77-.9.05-1.22,1.59-2.58,3.87-.75,1.27-1.06,1.48-1.81,2.59a26.18,26.18,0,0,0-3.1,6.73c-1.85,6.41-5.51,12.92-2.07,16.82C177.59,254.55,174.09,254.1,178.38,258.63Z"/><path class="cls-15" d="M163.63,321.24a23.67,23.67,0,0,0-2.07,3.88,28.2,28.2,0,0,0-1.81,7.5,33.83,33.83,0,0,0-.52,8.28,29.69,29.69,0,0,0,1,5.69c.81,2.86,1.42,5,3.1,7,1.11,1.31,2.82,2.27,6.2,4.14,3.59,2,5.39,3,7,3.36a18.15,18.15,0,0,0,10.09-.51c2.19-.75,3.63-1.72,6.46-3.63a18.67,18.67,0,0,0,4.4-3.62,22.16,22.16,0,0,0,2.85-4.91,31.17,31.17,0,0,0,2.59-6.21,19.85,19.85,0,0,0,.77-6.46c-.13-2.64-.82-5-1-4.92s.33,2.62,0,6.47a31.37,31.37,0,0,1-1.55,7.24,20.73,20.73,0,0,1-3.1,6.73,19.48,19.48,0,0,1-3.37,3.36,22.36,22.36,0,0,1-5.95,3.88A17.16,17.16,0,0,1,182,360c-2.8,0-4.78-.71-7.75-1.81a21.64,21.64,0,0,1-7-3.63,15.93,15.93,0,0,1-4.39-5.42,18.54,18.54,0,0,1-1.55-5.95,31.11,31.11,0,0,1-.26-6.47,53.73,53.73,0,0,1,1.29-7.76C162.68,327.23,163.16,324.56,163.63,321.24Z"/><path class="cls-16" d="M190,220.34c.3.66-.75,1.82-2.85,4.14-1.88,2.08-2.71,2.55-3.36,4.14a7.14,7.14,0,0,0-.52,3.1,7.77,7.77,0,0,0,1.55,3.88c1,1.47,1.4,1.37,3.36,3.62a18,18,0,0,1,2.33,3.1,7.82,7.82,0,0,1,1.29,3.62,7.72,7.72,0,0,1-.25,2.09c-.23,1-.72,2.63-1,2.59s.11-1.62-.77-3.36a7.47,7.47,0,0,0-2.07-2.33,29.54,29.54,0,0,0-3.11-2.07c-2.13-1.39-2.37-1.68-2.58-1.55-.64.4,1.16,3.37,2.32,8.8a38.25,38.25,0,0,1,.78,5.42,22.48,22.48,0,0,1,0,4.92,15.52,15.52,0,0,1-3.62,8.28,20.65,20.65,0,0,1-3.1,3.1,15.54,15.54,0,0,1-3.37,2.32c-3,1.44-6.56,1.4-6.72.78-.11-.42,2.56-.57,5.17-2.85a12.8,12.8,0,0,0,3.36-4.91c1.12-2.66,1.55-5.76,1-5.95s-1.37,1.63-3.36,5.17a10.65,10.65,0,0,0-1.3,2.85,9.63,9.63,0,0,0,0,4.14,18.62,18.62,0,0,0,1.81,4.91c2.84,6,2.94,6,3.37,7.25a16.77,16.77,0,0,1,1,6.2,14.76,14.76,0,0,1-1,4.91,14.57,14.57,0,0,1-2.33,3.88,7.58,7.58,0,0,1-2.59,2.33c-1.2.55-2.36.46-4.65.26a40.64,40.64,0,0,1-4.65-.78c-2.84-.58-2.73-.68-3.62-.78a12.1,12.1,0,0,0-6.2,1c-2.25,1.06-3.4,2.6-5.7,5.69-1.74,2.33-.18,3.75-1,5.17a6.58,6.58,0,0,0,.77,7c1,1.19.71.15,5.7,2.33,4.27,1.86,4.95,2.4,5.42,2.84a9.34,9.34,0,0,1,3.1,5.43c.54,4.06-2.86,5.64-2.07,9.57.45,2.2,1.81,3.18,1.3,3.88-.39.53-1.62.62-6.2-1a71.15,71.15,0,0,1-10.35-4.65,91,91,0,0,1-9.83-5.95C128.2,327.36,126,319,122.5,306c-2.87-10.72-4.3-16.09-3.11-23.28a39.18,39.18,0,0,1,8.8-18.63c3.3-3.8,6.53-7.54,11.39-8,2.73-.27,4.28.65,6.46-.52,2.54-1.36,2.7-3.82,4.65-8s4-6.6,8-11.38a46.64,46.64,0,0,1,8.54-8.54,40.08,40.08,0,0,1,9.32-5.17,35.87,35.87,0,0,1,6.2-1.82C185.29,220.08,189.48,219.2,190,220.34Z"/><path class="cls-17" d="M186.92,224.22a8.91,8.91,0,0,0,3.11,2.33,12.56,12.56,0,0,0,4.65,1.29,10.42,10.42,0,0,0,5.95-1c1-.53.87-.73,3.62-3.36,2.35-2.26,3.86-3.51,4.65-4.14a19,19,0,0,1,3.88-2.59,8.68,8.68,0,0,1,3.1-1c2.24-.22,5.81,0,6-.26s-3.1-1-5.43-1.55a19.33,19.33,0,0,0-4.91-.51,19.86,19.86,0,0,0-3.62.26c-1.46.25-2.57.66-6.47,2.58-4.11,2-4,2.11-6.2,3.1-2.72,1.21-8,0-9.06.26-2,.49-.52,2.07,0,3.1A5,5,0,0,0,186.92,224.22Z"/><path class="cls-18" d="M208.13,336.51c-.14.11,1.31,2.66,3.62,4.91a21.17,21.17,0,0,0,5.18,3.62,25.17,25.17,0,0,0,9,2.59,23.92,23.92,0,0,0,14.49-2.84,17.09,17.09,0,0,0,6.47-6c1.81-3,2-5.76,2.32-9.05a23.73,23.73,0,0,0-1-10.61,15.59,15.59,0,0,0-3.63-6.2,17.18,17.18,0,0,0-5.68-3.63c-1.38-.59-2.1-.72-6.21-2.32a6.16,6.16,0,0,1-3.36-2.33c-.54-.89-.65-1.84-.77-1.81a3.27,3.27,0,0,0,.26,2.07,4.74,4.74,0,0,0,1.29,1.81,10.49,10.49,0,0,0,4.65,2.07,25.25,25.25,0,0,1,6.2,2.85,15.49,15.49,0,0,1,5.43,5.42c1.34,2.38,1.51,4.43,1.81,8.28.29,3.63.48,6-.52,9.06a17.12,17.12,0,0,1-4.14,6.72,18.62,18.62,0,0,1-9.31,4.92c-4.91,1.16-8.85.25-12.16-.52a18.56,18.56,0,0,1-7.24-2.84,42,42,0,0,1-4.14-3.63C209,337.42,208.22,336.43,208.13,336.51Z"/><path class="cls-19" d="M216.67,379.71c-.41.05-.65.52-.78.78a2.5,2.5,0,0,0,0,2.32c.53.87,1.69,1.35,2.07,1,.16-.13.09-.31,0-1.55s0-1.44-.26-1.82C217.65,380.4,217.21,379.65,216.67,379.71Z"/><path class="cls-20" d="M171.65,353.32c-.44-.52-.87-1.49-.52-2.07.7-1.13,4.07-.25,6,.52.86.35,3.22,1.32,3.11,2.33-.08.69-1.3,1.16-2.07,1.29-1,.17-1.2-.16-4.14-1C172.58,353.94,172.1,353.85,171.65,353.32Z"/><path class="cls-21" d="M241.5,339.61c.82.08,1.45-.86,2.59-2.59.87-1.31,1.35-2,1.29-3.1,0-.84-.43-2-1-2.07s-2.13.2-3.62,2.07c-1.37,1.71-.78,2.73-.78,3.62A2.13,2.13,0,0,0,241.5,339.61Z"/><path class="cls-22" d="M331.66,104.48H515.32A41.5,41.5,0,0,1,556.81,146V605.2a41.5,41.5,0,0,1-41.49,41.49H331.66a41.5,41.5,0,0,1-41.49-41.49V146A41.5,41.5,0,0,1,331.66,104.48Z"/><path class="cls-23" d="M331.47,107.7H515.32a37.23,37.23,0,0,1,37.23,37.23h0V606.66a37.23,37.23,0,0,1-37.23,37.23H331.47a37.23,37.23,0,0,1-37.23-37.23V144.93a37.23,37.23,0,0,1,37.23-37.23Z"/><rect class="cls-24" x="308.48" y="168.98" width="229.82" height="402.18"/><polygon class="cls-4" points="309.04 169.79 537.49 530.27 537.49 169.79 309.04 169.79"/><rect class="cls-5" x="403.51" y="135.19" width="42.53" height="5.8" rx="2.9"/><circle class="cls-5" cx="378.52" cy="138.1" r="5.31"/><circle class="cls-25" cx="421.45" cy="607.27" r="20.26"/><circle class="cls-23" cx="421.45" cy="607.27" r="17.09"/><path class="cls-22" d="M289.34,171.41h0a1.28,1.28,0,0,1,1.28,1.28v18.94a1.28,1.28,0,0,1-1.28,1.29h0a1.28,1.28,0,0,1-1.28-1.29h0V172.69a1.27,1.27,0,0,1,1.28-1.28Z"/><path class="cls-22" d="M289.34,223h0a1.28,1.28,0,0,1,1.28,1.29V258a1.28,1.28,0,0,1-1.28,1.29h0a1.28,1.28,0,0,1-1.28-1.29V224.29A1.28,1.28,0,0,1,289.34,223Z"/><path class="cls-22" d="M289.34,269.6h0a1.28,1.28,0,0,1,1.28,1.28v33.76a1.28,1.28,0,0,1-1.28,1.28h0a1.27,1.27,0,0,1-1.28-1.28h0V270.88A1.27,1.27,0,0,1,289.34,269.6Z"/><path class="cls-22" d="M558.1,218.72h0a1.29,1.29,0,0,1,1.28,1.28v40.47a1.29,1.29,0,0,1-1.28,1.28h0a1.29,1.29,0,0,1-1.29-1.28V220A1.29,1.29,0,0,1,558.1,218.72Z"/><rect class="cls-7" x="311.63" y="251.93" width="224.18" height="286.8"/><rect class="cls-26" x="332.74" y="272.45" width="182.91" height="193.82"/><polygon class="cls-27" points="332.74 272.44 515.65 422.43 515.65 272.44 332.74 272.44"/><g class="cls-10"><path d="M378.62,498.71v4.57H374.4l-.94,7.27h-5.24l.95-7.27h-3.41l-.95,7.27h-5.2l1-7.27h-3.66v-4.57h4.22l.42-3.37H358v-4.53h4.18l.88-6.75h5.16l-.88,6.75h3.41l.91-6.75h5.2l-.87,6.75h3.58v4.53h-4.15l-.45,3.37Zm-8.43-3.37h-3.41l-.46,3.37h3.41Z"/><path d="M389.58,492.53,393.9,502l4.5-9.48h4l4.49,9.76,4.54-9.76h7.06l-9.42,18h-4.25l-4.5-9.87-4.28,9.87h-4.32l-9.24-18Z"/><path d="M422.54,485.61a3.39,3.39,0,0,1,.28-1.39,3.48,3.48,0,0,1,.77-1.14,3.66,3.66,0,0,1,1.15-.78,3.54,3.54,0,0,1,1.38-.28,3.59,3.59,0,0,1,1.39.28,3.73,3.73,0,0,1,1.14.78,3.5,3.5,0,0,1,.78,1.14,3.57,3.57,0,0,1,0,2.77,3.66,3.66,0,0,1-.78,1.15,3.88,3.88,0,0,1-1.14.77,3.42,3.42,0,0,1-1.39.28,3.37,3.37,0,0,1-1.38-.28,3.8,3.8,0,0,1-1.15-.77,3.63,3.63,0,0,1-.77-1.15A3.37,3.37,0,0,1,422.54,485.61Zm6.78,6.92v18H423v-18Z"/><path d="M436,481.39h6.36v13.42a7,7,0,0,1,2.63-2.12,8.14,8.14,0,0,1,3.13-.55,6.69,6.69,0,0,1,5.15,1.88A7.18,7.18,0,0,1,455,499.1v11.45h-6.36v-9.1a9.44,9.44,0,0,0-.21-2.21,2.55,2.55,0,0,0-.71-1.3,3,3,0,0,0-2-.74,3.12,3.12,0,0,0-2.48,1,4,4,0,0,0-.86,2.75v9.63H436Z"/><path d="M467.93,492.53v10.15q0,3.35,3.24,3.34t3.23-3.34V492.53h6.36v11.38a6.46,6.46,0,0,1-2.41,5.48c-1.6,1.22-4,1.83-7.18,1.83s-5.59-.61-7.19-1.83a6.46,6.46,0,0,1-2.41-5.48V492.53Z"/></g><path class="cls-28" d="M373,368.36c-.2.06,1,6.95,3,17.92,2.45,13.6,3.91,22.38-.71,30a23.38,23.38,0,0,1-9.05,8.34c-1.49,10.61-.09,15,1.6,17,.4.48.48,1.94,1,4.26.51,2.06,1.43,3.92,1.09,5.15l12.06-.18a3.66,3.66,0,0,0,1.42-2.66c.07-1.75-1.74-3.06-2.12-3.37-1.91-1.57-3.58-6.45-2.84-20.59A17.06,17.06,0,0,0,383,421.6a18,18,0,0,0,4.44-5.68,19.13,19.13,0,0,0,1.6-11.54c-1.09,0-2.68-.07-4.62,0-1.45.06.56.13,0-.17-1.77-1-2.58-4.9-2.5-5.68C382.84,389,373.4,368.25,373,368.36Z"/><path class="cls-29" d="M483.83,368.92a3.43,3.43,0,0,0-3.78,0c-1.43,1.21-.58,3.73-.48,4,.75,2.21,2.54,2.68,5.21,4.73,4.66,3.56,3.78,5.61,7.33,7.33,3.32,1.61,7.51,1.5,8.05.24.3-.71-.59-1.72-1.18-2.37C494.68,378.19,486.82,371.46,483.83,368.92Z"/><path class="cls-28" d="M446,386a15.67,15.67,0,0,0-7.57,3.78c-1.19,1.13-4.2,4.38-5.44,17.75a80.76,80.76,0,0,0-.24,15.62,90,90,0,0,0,6.16,25.79c.61.23,7.82,2.84,9.46.47.14-.2.46-.76,0-3.79a37.63,37.63,0,0,0-1.54-6.28c-.85-2.53-1.46-5.13-2.25-7.68-2.07-6.66-2.27-14.64-2.36-18A89.12,89.12,0,0,1,446,386Z"/><path class="cls-28" d="M460.27,323a27.83,27.83,0,0,1,9.22-8.28c2.45-1.35,6.84-3.77,11.12-2.37,2.51.81,3.8,2.55,6.16,5.68,11.83,15.74,12.31,16.19,13.48,18.93,1.83,4.27,3.37,7.88,3.32,13a26.91,26.91,0,0,1-4.74,14.67c-2.59,3.84-4.33,4.32-12.3,10.41-17.42,13.31-26.13,20-26.5,20.35a6.26,6.26,0,0,1-3.31,1.89,4.79,4.79,0,0,1-4-.94c-1.7-1.66-.9-5-.71-5.92C454.66,377.92,446.62,342.4,460.27,323Z"/><path class="cls-30" d="M420.36,322.57l29.82-1.42a45,45,0,0,1,36.32,23.9c4,7.64,4.74,14.43,5.44,21.06a84,84,0,0,1,0,17.51c-.92,9.47-1.54,24.23,0,46.85-.1,1.36-.83,9.1-7.33,14A19.42,19.42,0,0,1,472.54,448c-2.16,0-9.51,0-14.67-5.21-.41-.41-5.36-5.6-5.44-12.54,0-3.11.91-5.94-.95-8-1.11-1.25-2.6-1.53-3.08-3.08a4.59,4.59,0,0,1,.71-3.55l14.67-.47c.83,1.13,1.65,2.66,1.19,4s-1.83,1.32-2.84,2.61c-2.05,2.59-.22,7.54,1.42,10.17a10.52,10.52,0,0,0,4.73,4.5c2.77,1.21,6.49,1.19,9-.71s3.08-5.46,3.31-7.81c1.07-10.67.32-22.71-.23-29.34a21.47,21.47,0,0,0-6.16-8.76A23.21,23.21,0,0,0,463.78,385a34.57,34.57,0,0,0-15.61,0,19.22,19.22,0,0,0-8.52,4.73c-3.89,3.81-4.8,8.28-5.92,13.73a52.22,52.22,0,0,0,0,21.06c.84,3.84,1.67,5.17,2.13,9.46s0,5.81,1.42,8.28c.92,1.58,2,2.46,2.13,4.26a6.14,6.14,0,0,1-1.18,3.79H418.12a4.93,4.93,0,0,1-1.19-3.08c0-1.85,1.43-2.65,2.13-4.73.42-1.23.36-2.19,0-5-1-7.68-1.47-7.82-1.89-12.07-.3-3-.19-4.45-1.18-6.62a13.42,13.42,0,0,0-2.61-3.79q-.11-6.39-.23-12.78l-30.76,2.84A84.93,84.93,0,0,0,379.78,386c-2.38-9.39-5.95-16.72-6.38-16.57-.9.32,7.7,33.76,3.55,44a22.09,22.09,0,0,1-4.5,7.1c-2.67,2.57-3.93,2.06-5.21,4-.9,1.39-.6,2.15.24,12.06.39,4.66.43,5.74,1.42,7.1,1.15,1.59,2.69,2.32,2.84,4a4.39,4.39,0,0,1-1.18,3.08H348.31c-.23-1-.47-2-.7-3a43.82,43.82,0,0,0,2.48-5.68c.85-2.91,0-4.85-.71-8.52a57.88,57.88,0,0,1-.36-15.61c.56-4.94,1.66-6.73,2.49-10.29C354,397,348.8,392.4,346.9,377.23c-.8-6.34-1.83-14.47,1.06-24.13,1.26-4.21,4.44-14.85,14.2-21.3a38.07,38.07,0,0,1,15.61-5.68c6.59-.6,10,1.25,13.85-1.42Z"/><path class="cls-31" d="M433.41,334.88a72.2,72.2,0,0,0-16.56-16.56c-6.15-4.38-9.22-6.57-12.78-6.39-5,.26-9.07,4-10.41,5.21a51.4,51.4,0,0,0-4.26,5.2c-3.59,4.68-4.61,6.32-6.86,9.23-5,6.47-5.31,5.26-7.1,8.28-.31.54-5.08,8.87-2.36,17.75a22.19,22.19,0,0,0,7.1,10.17c14.16,12.5,40.33,27.72,45.19,30.53,2,.16,5.07.09,6.86-1.9a6.49,6.49,0,0,0,1.42-4.26C433.76,387.27,433.71,365.15,433.41,334.88Z"/><path class="cls-29" d="M460.32,371.87a3.43,3.43,0,0,0-3.78,0c-1.43,1.21-.58,3.73-.48,4,.75,2.22,2.54,2.69,5.21,4.74,4.66,3.56,3.78,5.61,7.33,7.33,3.32,1.61,7.51,1.49,8,.24.3-.71-.59-1.72-1.18-2.37A200.44,200.44,0,0,0,460.32,371.87Z"/></svg>
